<svg id="Calque_1" data-name="Calque 1" xmlns="http://www.w3.org/2000/svg" xmlns:xlink="http://www.w3.org/1999/xlink" viewBox="0 0 42 42"><defs><style>.cls-1{fill:url(#Dégradé_sans_nom);}</style><linearGradient id="Dégradé_sans_nom" x1="-602.05" y1="521.75" x2="-602.05" y2="520.75" gradientTransform="matrix(40, 0, 0, -40, 24103, 20871)" gradientUnits="userSpaceOnUse"><stop offset="0" stop-color="#f6ec7e"/><stop offset="1" stop-color="#00e69a"/></linearGradient></defs><title>Case-vide</title><path class="cls-1" d="M41,41H25.85l-3.4-1.78-.25-.13-.3,0L1,40.91V29.67l1.67-9.61,0-.2,0-.2L1,12.58V1H16.48l5.11,2.24.19.08h7.15l.27-.22L31.77,1H41V15.58l-1.56,6.65-.07.29.1.28L41,27.07Z"/><path d="M2,2V12.47l1.64,7,.09.4-.07.4L2,29.76V39.82l19.82-1.7.58,0,.52.27L26.1,40H40V27.24l-1.47-4.1-.2-.56.13-.58L40,15.46V2H32.13l-2.3,1.87-.55.45H21.57l-.38-.17L16.27,2H2M0,0H16.69L22,2.32h6.58L31.42,0H42V15.7l-1.59,6.76L42,26.9V42H25.6L22,40.11,0,42V29.58l1.69-9.69L0,12.7Z"/></svg>