<svg xmlns="http://www.w3.org/2000/svg" xmlns:xlink="http://www.w3.org/1999/xlink" viewBox="0 0 45.31 45.57"><defs><style>.cls-1,.cls-4{fill:none;}.cls-2{clip-path:url(#clip-path);}.cls-3{fill:url(#Dégradé_sans_nom_3);}.cls-4{stroke:#707070;stroke-width:0.58px;}.cls-5{fill:#fff;}.cls-6{fill:#0f0f0f;}</style><clipPath id="clip-path"><polygon class="cls-1" points="3.79 2.44 18.05 2.77 20.29 5.23 26.1 5.23 29.73 3.04 39.35 3.29 42.16 6.92 40.73 25.91 42.19 27.59 41.65 40.41 37.98 42.52 17.98 42.6 16.41 43.26 13.79 43.26 4.24 41.43 2.31 38.56 2.31 30.48 2.7 28.85 2.04 5.04 3.79 2.44"/></clipPath><radialGradient id="Dégradé_sans_nom_3" cx="5.41" cy="38.53" r="0.68" gradientTransform="matrix(78.26, 0, 0, -78.69, -400.34, 3055.02)" gradientUnits="userSpaceOnUse"><stop offset="0" stop-color="#00e69a"/><stop offset="1" stop-color="#9c4fd6"/></radialGradient></defs><title>cadre-inventaire</title><g id="Calque_2" data-name="Calque 2"><g id="Calque_1-2" data-name="Calque 1"><g class="cls-2"><g id="Groupe_de_masques_22" data-name="Groupe de masques 22"><g id="Rectangle_95" data-name="Rectangle 95"><rect class="cls-3" width="45.31" height="45.56"/><rect class="cls-4" x="0.29" y="0.29" width="44.72" height="44.99"/></g></g></g><g id="Tracé_577" data-name="Tracé 577"><polygon class="cls-5" points="9.44 6.92 15.41 6.92 16.88 8.01 28.54 7.79 29.96 6.92 36.72 6.92 39.03 9.7 37.79 25.85 38.75 27.27 38.75 36.05 35.93 38.24 23.7 37.74 22.74 38.78 8.03 38.02 6 35.29 7.42 29.29 7.75 24.6 7.08 9.16 9.44 6.92"/><polygon class="cls-6" points="8.97 6.43 8.91 6.45 8.87 6.63 8.97 6.43"/><path class="cls-6" d="M8.41,7.28s.05,0,.08,0l.22-.61C8.41,6.75,8.62,7.25,8.41,7.28Z"/><path class="cls-6" d="M8.27,7.38a.34.34,0,0,0-.19.34C8.06,7.59,8.41,7.46,8.27,7.38Z"/><path class="cls-6" d="M7.19,26.91a.17.17,0,0,0,0-.07S7.18,26.9,7.19,26.91Z"/><path class="cls-6" d="M6.84,32.06l.1.08a18.53,18.53,0,0,1,.59-2.83V29.1l0,.07c.13-1.56.19-3.05.23-4.57-.09-1-.17-2-.26-3,0,0,0,.05.06.09a1.09,1.09,0,0,1-.12-.4s0,0,.07.08c.16-.55-.19-1.59-.06-1.94,0-.15-.11-.21-.16-.12-.14-2-.27-4.17-.5-6.22,0-.1.07-.12.13-.1a14.81,14.81,0,0,1-.26-1.89l-.06-1L6.61,9,7.92,7.79c0-.11-.19.06-.12-.12a2.52,2.52,0,0,0-.55.58A2.17,2.17,0,0,1,7,8.54a2.8,2.8,0,0,1-.46.4V9l0-.08V8.86l0,.05c0,.3,0,.33.09.37a.23.23,0,0,1,0,.11.62.62,0,0,1,0,.23c-.06.16-.1,0-.1,0a11.86,11.86,0,0,0,.25,2.41c-.16.2,0,.88-.11,1.18.07.21.06.42.18.49,0,2.84.32,5.73.43,8.63a7.76,7.76,0,0,1,.2,2.23,19,19,0,0,0-.22,2.32,0,0,0,0,1,0,0,10.51,10.51,0,0,1-.06,1.92c0,.14,0,.31.08.43v.08c-.3,1-.57,1.93-.82,2.91L6,33.73l-.39,1.64,2.22,3,2.17.15A104,104,0,0,0,22.45,39s0,.05-.1.06h.53l.58-.64.38-.39.7,0c.29,0,.57,0,.86,0v0c2.88-.14,6,.28,8.73.11l1.85.08,2.89-2.25c0-1.75-.06-3.6-.08-5.39h.06c-.06-1.18,0-2.28,0-3.48L38,25.81c.11-1,.23-2.13.27-3.21.37-2.9.1-6,.52-8.94A18.14,18.14,0,0,0,39,9.73,7.94,7.94,0,0,1,37.77,8.2l-.46-.7c-.15-.23-.3-.44-.51-.74l-.93,0-.84,0c-.57,0-1.13,0-1.69,0-1.13,0-2.24.1-3.39.19l-1.38,1-.39,0c-3.25-.11-6.48.39-9.62.1a7.39,7.39,0,0,1-1.71.05L15.45,6.8a10,10,0,0,0-1.32,0l.06.08c-.6-.24-1.33.33-1.7,0l.06,0c-.31-.18-.73.42-.92.21l-.05.09c-.38,0-.05-.1-.34-.14-.11,0,0,.16-.27.11-.05-.36-.94.08-1-.33.21,0-.33-.15.14-.24-.13,0-.77,0-.72.15s-.3.34.09.48L9.6,7c.13.13.1.07.14.17.51,0,.58.21.94.29,0,0,0,0,0,0a1.27,1.27,0,0,1,.79,0l.08.08c.12.15.58-.31.42,0,.52,0,1.07-.05,1.64-.06h1.62l0,0,.08,0,.19.12c.11.08.19.1.16,0a1.41,1.41,0,0,0,.35.51,2,2,0,0,0,.26.25c.06.06.28.24.39.32h.35a.16.16,0,0,1-.14,0,1.51,1.51,0,0,0,.48.08,1.23,1.23,0,0,0,.29-.07.65.65,0,0,1,.64.05c.08-.25,1.05.06,1.37-.24.08.06.1.11.08.15,1,0,2.19.06,3.07,0,.75-.23,1.83.07,2.47-.25a7.67,7.67,0,0,0,2.16,0l-.08,0,1.32-.06L29,8.17l.15-.11.28-.22a2.55,2.55,0,0,0,.44-.42.81.81,0,0,0,.19,0l.06,0c0,.06.27.06.48.12.56-.14,1.7-.1,2.56-.22.14.13.71-.06.76.14.43-.07.89-.12,1.36-.16l.71,0,.54,0a31.06,31.06,0,0,1,2,2.55,3.37,3.37,0,0,0-.11.57l-.14.76v0c.08.34.28.74.39,1.09,0,0-.05,0,0,0,0,.47-.22.9-.22,1.37,0,0,0,0-.06-.09,0,.45-.22.9-.12,1.43l0,0,0,.33c-.07,0-.16,0-.13-.21-.16,1.76-.25,3.54-.33,5.34l-.12,2.7-.16,2.83.93,1.38a.31.31,0,0,1-.11-.05l.12.11a2.38,2.38,0,0,1,.08.42s0,0-.07-.08c-.11,1,.08,2.09.05,3.09,0,0-.09-.16-.13,0,.17.74-.23,1.19.14,1.56a.07.07,0,0,1-.13,0c0,.62.06,1.24.07,1.86l0,1.7-1.89,1.42c-.11.12-.23.25-.36.37l-.31.31h-1l-1.11,0a14.65,14.65,0,0,0-2.2,0v-.06c-2.33.13-4.78-.21-7.19-.26l-.71,0-.94,1.08-.57,0,0-.08c-1.71.22-3.53-.46-5.31-.21l.12-.11c-.28.16-1.06-.11-1,.18l-.3-.1c-1.22.32-2.17-.29-3.65-.12l.1-.06a3.78,3.78,0,0,1-1.13,0s0,0,.11,0a10.87,10.87,0,0,0-3-.17c-.16-.17-.33-.39-.49-.6l.19,0C7.28,37,6.7,36,6.18,35.38h.08l-.14-.11v-.18h.12C6.48,34.11,6.62,33.07,6.84,32.06Z"/><path class="cls-6" d="M7.55,21.38h0S7.55,21.41,7.55,21.38Z"/><path class="cls-6" d="M10.81,7.48l-.13,0S10.77,7.48,10.81,7.48Z"/></g><g id="Tracé_580" data-name="Tracé 580"><polygon points="4.24 1.56 4.13 1.56 4.16 1.84 4.24 1.56"/><path d="M3.76,2.8c.05,0,.09.05.14.05l0-.94C3.47,1.93,4.07,2.79,3.76,2.8Z"/><path d="M3.57,2.92c-.29.12-.16.4-.13.51C3.34,3.21,3.84,3.08,3.57,2.92Z"/><path d="M2.44,27.78s0,0,0,0S2.43,27.76,2.44,27.78Z"/><path d="M2.46,34.33l.22.07c-.39-1.22,0-2.6-.16-3.88l.07.08,0-.8L3.05,29l.47-1,0-.9-.06-.82-.14-1.64c-.09-1.09-.18-2.18-.27-3.31,0,.05.09.07.12.12-.08-.15-.23-.32-.21-.5S3,21,3,21c.35-.69-.27-2,0-2.44,0-.19-.2-.27-.31-.16-.13-2.54-.24-5.25-.57-7.83a.21.21,0,0,1,.28-.12A12.26,12.26,0,0,1,2,7.81c0-.45,0-.91,0-1.37L2,4.73,3.21,3.5c-.06-.17-.27.06-.25-.22a1.45,1.45,0,0,0-.46.53,5,5,0,0,1-.27.43l-.3.45a3.41,3.41,0,0,1,0,.55,1.32,1.32,0,0,1-.07.48l-.15-.09c-.09.48.38.09.2.6-.13.19-.2-.05-.21,0a10.29,10.29,0,0,0,.34,3c-.32.24,0,1.09-.3,1.47.13.27.1.53.32.63C2,15,2.33,18.62,2.36,22.27A6.09,6.09,0,0,1,2.61,25c0,.48-.07,1-.1,1.47,0,.24,0,.49,0,.74v.37a1,1,0,0,0,0,.18v.06l-.07,0a2.54,2.54,0,0,1-.23.75,8.26,8.26,0,0,1-.52,1c0,.24,0,.53,0,.65l.26.67c-.14,1.26-.22,2.54-.27,3.82l0,1.92v2.1c.56,1.08,1.13,2.16,1.7,3.23l2.11.4,1.76.38,3.56.78,1.73.38,1.85.38,1.3-.1L17.07,44l1.14-.87.45-.36c.13-.11.11-.11.18-.17l.15,0,.46,0,1-.05c.64,0,1.29-.09,1.95-.16,0,.06,0,.09-.11.11,1.55-.06,2.94.23,4.4.16v.07c3.62-.37,7.49.39,11,0l1,0,3.86-3.16c0-1.3.08-2.63.11-4s0-2.63.05-3.93l.13,0c0-.73,0-1.44,0-2.15l.07-1.07.1-1.13L41.6,25.31l.06-.36.05-.46.1-.95c.06-.64.1-1.28.11-1.92.56-3.64-.15-7.59.51-11.26A11.81,11.81,0,0,0,42.64,6,7.47,7.47,0,0,1,40.57,3.8a16.5,16.5,0,0,0-1-1.38l-1.43-.15L36.87,2.2c-.87,0-1.75,0-2.62,0-1.74.1-3.55.31-5.24.54l-.73.69c-.54.32-1,.6-1.56,1-1.09,0-2,0-3,.07l-1.45.06-.72,0-.89,0-1-1-.42-.48L19,2.78c-.44,0-1.22-.11-1.85-.23-1.88.45-3.94-.56-6-.43l.08.16c-.75-.47-1.67.66-2.14,0l.08,0c-.39-.36-.92.84-1.16.41l-.06.18c-.48.05-.06-.2-.43-.27-.14,0,0,.32-.34.22C7.11,2,6,2.9,6,2.09c.26,0-.41-.31.18-.48-.17-.08-1,0-.9.3s-.38.68.11,1l.09-.27c.17.27.13.13.19.33.64,0,.72.42,1.18.58,0,0,0,0,0,0,.31-.32.74-.13,1-.09l.1.15c.15.31.72-.6.53-.07,1.3-.14,2.78-.13,4.23-.14.21-.2,1.11,0,.8-.37a2.74,2.74,0,0,0,1.84.54s0,.09-.1.07c.78.58.92-.53,1.65.18.1-.5,1.35.15,1.71-.43a.76.76,0,0,1,0,.3h.07s0,0,.07.12l.4.51.42.52.73.87,1.47,0c1-.44,2.3.19,3.11-.41l.84.15.48.07.91,0c.22-.16.45-.33.66-.5A3.22,3.22,0,0,0,28,4.72l0,.11.82-.62.4-.34c.08-.07.06-.08.09-.14l.07,0,.05,0,.13,0a2.52,2.52,0,0,0,.49-.18c.31.58.77.46,1.23.65.71-.27,2.15-.19,3.23-.43.17.26.89-.12,1,.27a13.58,13.58,0,0,1,2-.34c.34,0,.69-.07,1-.09l.72,0,.17.18.38.42c.26.29.52.58.77.88l.73.91c.1.14.26.34.31.43a.35.35,0,0,1,0,.13c0,.08-.07.06-.11.17l-.16.65,0,0c.18.43.61,1,.85,1.4,0,0-.1,0-.09-.06,0,.59-.39,1.12-.37,1.71-.06,0-.06,0-.11-.11.13.57-.4,1.12-.15,1.8l-.1,0,.11.42c-.13,0-.32-.05-.26-.27-.22,2.16-.29,4.36-.35,6.58,0,1.1,0,2.22-.07,3.33l-.06,1.67-.1,1.92.83,1.12.59.82-.17,0,.19.12a1.3,1.3,0,0,1,.12.37c-.07,0-.1-.05-.12-.1a31.53,31.53,0,0,0-.08,3.88c-.06,0-.17-.2-.25,0,.31.94-.52,1.47.19,2a.19.19,0,0,1-.26,0c0,.95.07,1.91,0,2.87l0,1.45,0,.72,0,.42-1.43,1.09a7.82,7.82,0,0,1-.87,1c-.16.16-.32.32-.49.47l-.41.36-1.92-.07a10.92,10.92,0,0,0-2.06.14l0-.13c-2.94.33-6-.29-9-.33-1.25-.11-2.1,0-3.37,0l0-.16a5.62,5.62,0,0,1-1.69.11c-.6,0-1.07-.14-1.81-.24l-.58.35-.49.3a6.06,6.06,0,0,0-.84.64,6,6,0,0,0-.84.27l.13-.23c-.31.37-1.35,0-1.16.57l-.31-.11-.08-.05c-1.61.5-2.63-.84-4.53-.67l.14-.11a3,3,0,0,1-1.41-.19c.05,0,0-.06.16-.07-1.4-.81-3.24-.53-4.77-.82l.3-.21-.24,0a2.64,2.64,0,0,1-.32-.45L3.28,40a10.34,10.34,0,0,0-.73-1.34h.14l-.15-.13-.1-.26.24,0C2.7,36.9,2.49,35.63,2.46,34.33Z"/><path d="M3,21v0S3.05,21.08,3,21Z"/><path d="M7,3.57l-.16,0S6.92,3.56,7,3.57Z"/></g></g></g></svg>