<svg xmlns="http://www.w3.org/2000/svg" xmlns:xlink="http://www.w3.org/1999/xlink" viewBox="0 0 46.41 45.57"><defs><style>.cls-1,.cls-3{fill:none;}.cls-2{clip-path:url(#clip-path);}.cls-3{stroke:#707070;stroke-width:0.58px;}.cls-4{fill:#fff;}.cls-5{fill:#7d3d15;}.cls-6{fill:#fec66d;}</style><clipPath id="clip-path"><polygon class="cls-1" points="2.64 2.41 17.06 3.68 20.56 5.23 26.36 5.23 29.99 3.04 39.62 3.29 42.43 6.92 40.99 25.91 42.46 27.59 41.92 40.41 38.25 42.52 18.25 42.6 16.68 43.26 14.06 43.26 4.5 41.43 2.58 38.56 2.58 30.48 2.97 28.85 0.82 5.39 2.64 2.41"/></clipPath></defs><title>cadre-jaune</title><g id="Calque_2" data-name="Calque 2"><g id="Calque_1-2" data-name="Calque 1"><g class="cls-2"><g id="Groupe_de_masques_22" data-name="Groupe de masques 22"><g id="Rectangle_95" data-name="Rectangle 95"><rect class="cls-3" x="0.29" y="0.29" width="44.72" height="44.99"/></g></g></g><g id="Tracé_580" data-name="Tracé 580"><polygon class="cls-4" points="3.75 3.85 18.94 3.88 20.49 5.6 25.83 5.6 27.95 4.08 37.65 4.08 40.6 7.18 39.25 25.25 40.6 27.13 40.13 38.35 36.71 41.19 18.37 40.38 16.66 41.65 14.53 41.86 4.79 40.08 3.44 37.49 3.44 29.26 4.33 27.59 4.24 21.71 2.68 6.89 3.75 3.85"/><path class="cls-5" d="M3.59,3.79c.1-.72-.41.09-.85.78l.3.87Z"/><path class="cls-5" d="M2.41,7.58l.8,1.91L2.77,8.11c.14-1.58.65.12.82.72a4.59,4.59,0,0,0-.3-1.21c-.1-.18-.2-.22-.3-.2S2.6,7.79,2.41,7.58Z"/><path class="cls-5" d="M3.28,11.39c.09,1.26.44.87.5.33C3.61,11.65,3.35,10.85,3.28,11.39Z"/><path class="cls-5" d="M41.63,25.82a3,3,0,0,1,.39.88c0,.05,0,.06,0,.05.06.37.13.54.2-.09C42.07,26.47,41.91,26.22,41.63,25.82Z"/><path class="cls-5" d="M42,26.75v0l-.24-.24.21.25h0S42,26.74,42,26.75Z"/><path class="cls-5" d="M27.16,37.43a26.78,26.78,0,0,1-3.56.08L22.87,37c-1.46.1-.66.38-1.72.58a6.45,6.45,0,0,0-1.22-.18l-1.18-.07-1.33,0-1.86,1.45c.09,0,0,0,0,0l0,0a.39.39,0,0,1-.06-.14l0-.15c0-.05-.1,0-.14-.06.15-.07.09,0,.11.07a.72.72,0,0,1,0,.28,3,3,0,0,1-.46.16l-.14,0,0,0-.07,0c-.09,0,0,0-.38,0v-.13c-1.38-.06-2.86-.21-4.38-.4l-2.31-.31L7,38.05l-.23,0-.42,0-.28-.43-.22-.39-.15-.23c0-.08-.06-1.21-.1-2s-.1-1.67-.16-2.49c0,.38-.12.28-.22.43l0-1.78,0-.91,0-.5.22-.49L6,28l-.08-1.91-.09-1.49c-.06-1-.14-1.89-.23-2.95a38.46,38.46,0,0,0-1.52-6c.24,1.63.31,3.84.48,6.08,0,1.08,0,2.12.06,3.12A17.92,17.92,0,0,0,5,27.67l0,.07a6.51,6.51,0,0,0-.6.91c-.15.26-.26.5-.38.75a8,8,0,0,1,0,.85,1.11,1.11,0,0,1-.21.63,30.2,30.2,0,0,0,0,3.62c0,.52.09,1,.15,1.52s.11.92.17,1.3l.32.46.35.51c.21.31.41.61.61,1,.36,0,.73.09,1.11.16.2.08.33.18.32.28s0,.21,0,.34L5,39.81l-.73-1.19L4.84,40l.59.16a4.48,4.48,0,0,1-.69,0l-.91-1.52c-.29-.46-.59-.88-.82-.93.3.41.56.8.83,1.23s.54.89.81,1.36L9,41a20.66,20.66,0,0,0,3.67.31c-1.23-.33-2.82-.49-4.29-.8-.63-.27-1.62-.56-1.51-.78a39.22,39.22,0,0,1,4.05.34c.65.09,1.29.19,1.93.3l1.77.3,1.61-.17L18,39.06h.12a8.39,8.39,0,0,1,3.22.35c-.73.05-.19.26-.79.34,1.57-.12.19-.81,2.45-.62l-.32.78c.94-.8,2.76.27,4.4-.15.57.34-.51.48-1.75.44,1.4.2,1.55-.25,2.67-.19l-1.1.63c1.23-.59,2.14.22,2.81.47.09-.16-.52-.71,1-.6.64.11.31.27.45.37.09-.16.65-.44,1.64-.41.17.23-.67.31-.75.53a5.64,5.64,0,0,1,1.89.22c1.34-.13-.07-.33.75-.54,1,.12,1,.32.94.55s-.44.49,0,.75c-1.65.25-3.54.27-4.4.41l3,0c-.19.26,2,.54.4.73.5.08,1.77.16,2.89.22l1.34-1.12,1-.84L42,39.27c0-.73,0-1.45,0-2.15l0-1.42c-.11.39-.18.9-.35.81-.09-1.46.23-1.28.43-1.57-.14-1.08-.6-1-.91-1.66.48-2.2.26-2.52.89-4.38l-.46.1a3.2,3.2,0,0,0,.13-.57,4,4,0,0,0,0-.59c0-.36-.09-.66-.12-1a4.08,4.08,0,0,1-.41-.49,5.51,5.51,0,0,1-.44-.72s.1-.05.32.17l.69.68c-.13-.15-.24-.29-.33-.41s-.19-.27-.26-.39a1.8,1.8,0,0,1-.14-.26.22.22,0,0,1,0-.14.55.55,0,0,0-.14-.47c0-.06,0-.12,0-.19l.16.15a3.83,3.83,0,0,0,.51.13l-.19-.22a1.88,1.88,0,0,1,0-.5.39.39,0,0,1,.11-.15s.1,0,.18.1c-.39-1.76,0-4.79-.1-7l.39.17c-.4-1.15.33-4.1-.17-5.11l.17-.16-.37-2.26c.13-1,.7-.61.54-.71,0-.89.08-1.72.11-2.49l-1-1-.8-.86-.56-.66-.73-.89a1.71,1.71,0,0,1-.88-.4c-.34.06-.71.11-1.12.15L35.9,3c-.68.06-1.41.09-2.08.11L30.9,3.06,27.62,3,25.5,4.58l-2.34,0-1.27,0-1,0-.19-.18-.05,0-.23-.24L20.22,4l-.2-.2L20,3.77l.07.09-.15-.16-.6-.62-1.69.06-1.41.07-2.7.15L8.26,3.7a41.76,41.76,0,0,0-4.51.86c1.9.13,2.08-.13,4-.13,1.41.14,1.92.69,3.13,1L10.22,5c1.9-.36,1.31.24,2.81-.21L13,5.53c.53-.37,1.86-.07,2.4.12l.49-.5c.6.14,1.09.24,1.48.36a.59.59,0,0,1,.36.49c0-.15,0-.31,0-.46.05.07.21.1.41.13l-.06,0,.61.71.1.12s.18.2-.1-.1l-.07-.07,0,0,.05.06.1.12.19.23c.25.3.47.58.64.81.48.08.6.21-.2.44h0l0,0a8.24,8.24,0,0,1,2.37-.29l.18.46a5.81,5.81,0,0,1,2.68.05,1.53,1.53,0,0,0-1,.51,17.57,17.57,0,0,0,3.1-.2,1.93,1.93,0,0,0,.67-1.44,2.13,2.13,0,0,1,.43-.75A1.25,1.25,0,0,1,28,6.15a1.3,1.3,0,0,1,.1-.15,4,4,0,0,1,.35-.32h.16l.05.3a1.88,1.88,0,0,1,.23-.16,1.08,1.08,0,0,1,.34-.16L30.34,6a5.93,5.93,0,0,1,3.21-.43l2.08.11.78,0a4.89,4.89,0,0,0,.54,0,2.26,2.26,0,0,0,.42.26,1.13,1.13,0,0,1,.27.32l.44.65a2.47,2.47,0,0,1,.29.55,1.6,1.6,0,0,0,.23.4,1.39,1.39,0,0,0,0,.35L39,8.09a20.19,20.19,0,0,0-1,3.8A11.52,11.52,0,0,1,36.62,16c.25,1.42.11-.14.47-.08.27,2.76-.46,2.9-.84,4.31.11,1.7.27-1.27.55-.34a5.27,5.27,0,0,0-.07,2.39,7.07,7.07,0,0,1,.11,1.06A21.73,21.73,0,0,1,36.61,26l.1.15c0,.18-.09.11-.28-.1,0-.45,0-1.46,0-1.85,0,.57,0,1.19,0,1.86l.6.75.7.92c.17.23.1.11.09.09l.11.13v.19l0,.46c0,.53-.06,1.08-.08,1.62-.06,1.1-.11,2.19-.13,3.21-.07.7-.16,1.46-.25,2.26l-.06.61,0,.32c0,.07,0,0,0,.09l-.08.21L37,37a.28.28,0,0,0-.12.06l-.44.33-.45.34-.23.17s0,0,0,0l-.13,0-.13-.08a2.66,2.66,0,0,0-.42,0l-.59-.07-2.26-.28-.09.16c-1.84-.51-3.86-.2-6-.49Z"/><path class="cls-5" d="M2.46,36.58a4,4,0,0,0-.39.48l.07.75,1.06,1.6c0-.18-.1-.37-.13-.49a1.51,1.51,0,0,0-.15-.37c-.12-.26-.28-.51-.46-.82A10.94,10.94,0,0,1,2.46,36.58Z"/><polygon class="cls-5" points="3.65 36.99 3.46 35.95 3.49 37.48 3.58 37.64 3.54 37.47 3.65 36.99"/><polygon class="cls-5" points="26.73 41.16 26.47 41.09 22.55 41.25 26.73 41.16"/><path class="cls-5" d="M42.13,25.83a4.87,4.87,0,0,1,.63.65c0,.54,0,1.13.06,1.61l0-1.61-.87-1.06Z"/><path class="cls-5" d="M44,9.73a1.34,1.34,0,0,1-.27-.51,1.91,1.91,0,0,1,0-.2l0-.26c0-.14,0-.18,0-.08l-.11.26a1.26,1.26,0,0,1-.2.29C43.44,10.32,43.79,9.4,44,9.73Z"/><path class="cls-5" d="M41.21,4.11l.16.17.24.24c.15.15.3.28.44.4s.53.43.79.63a3.15,3.15,0,0,0-.91-1.07A6.26,6.26,0,0,0,41.21,4.11Z"/></g><g id="Tracé_580-2" data-name="Tracé 580"><path class="cls-6" d="M2.46,2.35c.11-.77-.44.09-.92.84l.32.94Z"/><path class="cls-6" d="M1.19,6.45l.86,2.06L1.58,7c.14-1.7.7.14.88.78a5.11,5.11,0,0,0-.33-1.31c-.1-.18-.21-.23-.32-.21S1.39,6.67,1.19,6.45Z"/><path class="cls-6" d="M2.13,10.56c.1,1.36.48.94.55.36C2.49,10.85,2.2,10,2.13,10.56Z"/><path class="cls-6" d="M43.75,25.89c.3.57.57,1,.41,1l.07.07c.06.32.12.44.19-.06A12.1,12.1,0,0,0,43.75,25.89Z"/><path class="cls-6" d="M44.16,26.91l-.29-.28.24.28S44.14,26.91,44.16,26.91Z"/><path class="cls-6" d="M28.18,38.49a27.74,27.74,0,0,1-3.85.07L23.55,38c-1.58.1-.71.41-1.86.63a8,8,0,0,0-1.39-.21L19,38.37l-1.5,0-1.94,1.51-.06,0h0s0,0,0,0a.45.45,0,0,1-.1-.26c.05-.13-.19,0-.12-.17-.07.08.1,0,.07,0v.11a.75.75,0,0,1-.06.29c-.15.11-.87.26-.82.28h-.07l-.18,0,0-.15c-1.53-.06-3.15-.22-4.84-.43l-2.56-.34-.65-.09a.43.43,0,0,0-.17,0H5.9l-.47,0-.3-.47-.24-.41L4.73,38l0-.24v-.49l-.06-1.32c0-.88-.1-1.75-.17-2.59,0,.41-.13.3-.23.46l-.06-2,0-1,0-.58.24-.51L5,28.35l-.08-2.06c0-.53-.07-1.07-.1-1.59l-.11-1.58-.14-1.6L4.49,21l-.09-.43-.18-.85c-.12-.56-.24-1.11-.38-1.64C3.57,17,3.28,16,3,15.13c.26,1.73.33,4.08.51,6.46,0,1.17,0,2.29.06,3.37A21.38,21.38,0,0,0,4,28.09l0,.09a6.57,6.57,0,0,0-.64.92c-.15.26-.28.51-.4.77s0,.67,0,1a1.21,1.21,0,0,1-.24.75,33.09,33.09,0,0,0,.05,3.8c.08,1.07.2,2.21.32,3l.36.49.38.55c.23.33.45.66.67,1,.44.05.89.11,1.37.19.65.22.28.41.43.68L4,41.07,3.29,40l.54,1.3.85.23a5.89,5.89,0,0,1-1-.06C3.1,40.44,2.41,39.1,2,39l.43.61.41.62c.27.43.55.89.82,1.35,1.67.23,3.26.51,4.79.73a23.79,23.79,0,0,0,4.08.35c-1.33-.36-3.05-.53-4.65-.86-.67-.29-1.74-.61-1.63-.84a40.9,40.9,0,0,1,4.3.35c.69.09,1.37.2,2.05.31l1.87.32,1.77-.19,1.92-1.49h.31l1.3,0,.55,0,.45,0a2.3,2.3,0,0,1,1.13.28c-.79,0-.21.28-.86.37,1.71-.14.21-.89,2.66-.68l-.35.84c1-.86,3,.29,4.75-.16.62.37-.55.52-1.89.48,1.52.22,1.67-.27,2.89-.21L27.87,42c1.32-.64,2.31.24,3,.5.1-.17-.56-.75,1.06-.64.69.12.33.29.49.4.1-.17.69-.48,1.77-.45.18.25-.73.34-.81.58a6.06,6.06,0,0,1,2.05.23c1.43-.14-.08-.35.8-.58,1.1.13,1.11.35,1,.6s-.48.53,0,.81c-1.79.27-3.83.29-4.75.44l3.18-.06c-.21.28,2.12.59.44.79.4,0,.6.08,1.29.13l1.8.11L40.7,43.6l1-.89c.83-.75,1.67-1.49,2.48-2.21V38.16c0-.43,0-.57,0-.84l0-.71c-.12.42-.2,1-.38.88-.1-1.58.25-1.39.47-1.7-.15-1.17-.65-1.06-1-1.79.51-2.38.27-2.73,1-4.74l-.5.11a3.79,3.79,0,0,0,.14-.61,4.51,4.51,0,0,0,0-.62c0-.38-.08-.69-.12-1a4.57,4.57,0,0,1-.49-.56,5.78,5.78,0,0,1-.51-.81c0-.06.13,0,.32.14l.76.75a6.14,6.14,0,0,1-.64-.86c-.06-.1-.09-.16-.13-.24s0-.08,0-.12a.56.56,0,0,0-.13-.48,1.23,1.23,0,0,0,0-.26l.22.2a3.47,3.47,0,0,0,.48.13l-.17-.21a2,2,0,0,1,0-.57s.06-.18.11-.21.12,0,.21.11c-.42-1.91,0-5.18-.1-7.53l.41.18c-.42-1.24.36-4.43-.18-5.52l.19-.17-.39-2.44c.13-1.09.74-.67.57-.77,0-.88.08-1.72.12-2.5L43.29,4.21l-.9-1-.69-.79q-.45-.51-.84-1a1.26,1.26,0,0,1-.72-.27c-.36.08-.77.14-1.22.2l-1.35.13c-.77.07-1.63.11-2.4.14l-3.09-.08-3.47,0L26.3,3.19l-2.55.06-1.38,0-1.09,0-.22-.2,0,0-.25-.26-.21-.22-.22-.22-.06,0s.14.15.08.08l-.17-.17-.64-.66-1.84.07-1.54.07-2.95.16-5.7.38a44.74,44.74,0,0,0-4.87.92C4.7,3.33,4.89,3,6.91,3.05c1.52.15,2.08.74,3.38,1.11l-.66-.49c2-.38,1.41.27,3-.22l-.07.78c.57-.4,2-.07,2.59.13l.53-.54c.65.15,1.18.26,1.6.39a.58.58,0,0,1,.45.53c0-.17,0-.33,0-.5.05.09.25.12.49.15l-.05,0h0l.34.38.12.14.23.27.11.14s.06.07,0,0l-.21-.23c-.05,0,0,0,0,0l.41.49c.26.32.48.6.63.82.35.08.41.2-.17.39l-.21-.12.19.15a8.23,8.23,0,0,1,2.39-.27l.18.49,1-.08c.3,0,.58,0,.84,0a2,2,0,0,1,1.11.18,1.67,1.67,0,0,0-1.07.55,15.33,15.33,0,0,0,3.46-.28c.62-.71.43-1,.6-1.44a2.52,2.52,0,0,1,.56-.85l.33-.37a2,2,0,0,1,.39-.35h.1l.06.32a3.57,3.57,0,0,1,.55-.34l1.17.41c.73-.5,2.08-.52,3.58-.46l2.32.12.57,0h.3c.2,0,.4,0,.6,0a2.71,2.71,0,0,0,.37.21,1.06,1.06,0,0,1,.28.34l.47.72.26.4.12.25a2,2,0,0,0,.28.45.82.82,0,0,0,0,.27l.5-.18a4.32,4.32,0,0,0-.21.47,2.24,2.24,0,0,0-.11.29l-.14.58c-.17.8-.38,1.73-.58,2.67-.43,1.86-.93,3.71-1.56,4.42.27,1.54.12-.15.5-.09.29,3-.5,3.14-.9,4.66.11,1.84.29-1.37.59-.37a5.83,5.83,0,0,0-.08,2.61,6.09,6.09,0,0,1,.11,1.16,24.69,24.69,0,0,1-.26,2.95l0,0c0,.16,0,.14-.18,0-.07-.39,0-1.68-.06-2.16,0,.66,0,1.38,0,2.17l.65.81.76,1,.1.13.05.06v0l0-.07.11.13v.21l0,.47-.09,1.73c-.06,1.17-.11,2.34-.13,3.42l-.28,2.46-.06.66,0,.34a.3.3,0,0,1,0,.09l-.08.23-.21.09s0,0-.12.06l-.49.36-.48.36-.25.18c-.06.05,0,0-.06,0l-.15,0L37.18,39a2.69,2.69,0,0,0-.46-.06l-.63-.07-2.44-.3-.09.17c-2-.54-4.18-.21-6.51-.52Z"/><path class="cls-6" d="M1.24,37.84c-.14.17-.28.35-.42.55l.05.53,1.31,2a4.07,4.07,0,0,0-.36-1c-.16-.32-.36-.62-.59-1C1.22,38.55,1.22,38.22,1.24,37.84Z"/><polygon class="cls-6" points="2.53 38.23 2.33 37.11 2.35 38.55 2.55 38.91 2.46 38.53 2.53 38.23"/><polygon class="cls-6" points="27.72 42.52 27.43 42.44 23.2 42.61 27.72 42.52"/><path class="cls-6" d="M44.3,25.92a5.91,5.91,0,0,1,.77.8,13.65,13.65,0,0,0,.06,1.6l0-1.6L44,25.44Z"/><path class="cls-6" d="M46.41,8.55A1.37,1.37,0,0,1,46.12,8a3.61,3.61,0,0,1,0-.7c0-.31,0-.11-.37.71C45.81,9.19,46.19,8.19,46.41,8.55Z"/><path class="cls-6" d="M43.22,2.52c.12.14.2.21.34.35s.32.3.48.43.57.46.85.66C44.08,2.64,43.61,2.71,43.22,2.52Z"/></g></g></g></svg>