<svg xmlns="http://www.w3.org/2000/svg" xmlns:xlink="http://www.w3.org/1999/xlink" viewBox="0 0 45.3 45.57"><defs><style>.cls-1,.cls-4{fill:none;}.cls-2{clip-path:url(#clip-path);}.cls-3{fill:url(#Dégradé_sans_nom_3);}.cls-4{stroke:#707070;stroke-width:0.58px;}.cls-5{fill:#fff;}.cls-6{fill:#0f0f0f;}</style><clipPath id="clip-path"><polygon class="cls-1" points="2.64 2.41 17.06 3.68 20.56 5.23 26.36 5.23 29.99 3.04 39.62 3.29 42.43 6.92 40.99 25.91 42.46 27.59 41.92 40.41 38.25 42.52 18.25 42.6 16.68 43.26 14.06 43.26 4.5 41.43 2.58 38.56 2.58 30.48 2.97 28.85 0.82 5.39 2.64 2.41"/></clipPath><radialGradient id="Dégradé_sans_nom_3" cx="5.4" cy="38.53" r="0.63" gradientTransform="matrix(78.26, 0, 0, -78.69, -399.98, 3055.02)" gradientUnits="userSpaceOnUse"><stop offset="0" stop-color="#00e69a"/><stop offset="1" stop-color="#9c4fd6"/></radialGradient></defs><title>Fichier 2</title><g id="Calque_2" data-name="Calque 2"><g id="Calque_1-2" data-name="Calque 1"><g class="cls-2"><g id="Groupe_de_masques_22" data-name="Groupe de masques 22"><g id="Rectangle_95" data-name="Rectangle 95"><polygon class="cls-3" points="1.47 1.85 43.47 1.85 43.47 43.85 1.22 43.85 1.47 1.85"/><rect class="cls-4" x="0.29" y="0.29" width="44.72" height="44.99"/></g></g></g><g id="Tracé_577" data-name="Tracé 577"><polygon class="cls-5" points="5.12 7.75 13.56 6.77 18.64 10.02 27.66 8.61 29.08 7.74 35.84 7.74 38.16 10.52 36.91 26.67 37.87 28.09 37.87 36.87 35.05 39.05 22.82 38.56 21.86 39.6 7.15 38.84 5.12 36.11 6.54 30.11 6.87 25.41 6.26 10.17 5.12 7.75"/><path class="cls-6" d="M5.64,8.18C6,8.16,6.7,8.08,7.33,8,6.84,8,6.32,8.1,5.64,8.18Z"/><path class="cls-6" d="M7.34,8h0Z"/><path class="cls-6" d="M4.81,8.42,5,8.9Z"/><path class="cls-6" d="M36.05,8.89l.09,0c1,1.17.25.37,1.15,1.44.08.07.34.38.29.32l-.08,1c0,.4-.06.75-.06.92a5.13,5.13,0,0,1-.08.63c0,.21,0,.71-.07,1.14,0,.15,0-.12,0-.23l-.07,1c0,.38-.06.48,0,.06-.13,1.62-.56,7-.92,11.62.33.5.66,1,1,1.44v4.46c0-.36,0-1.22,0-1.54,0,.73,0,1.08,0,1.41s0,1.62-.07,2.18l0,.21,0,.36c0,.76,0,1.41,0,1.24a1.83,1.83,0,0,1-.21.16l-1.23,1-.63.49-.36.29s.05,0-.07,0h-.26l-.48,0-.9,0c.14,0,.51,0,.08,0-.08,0-1.15,0-1.36-.06-.42,0-1.79-.08-1.33,0-.23,0-1.45-.08-.72-.07l-1.11,0,.53,0c-1.39,0-2.15-.11-3.05-.11l.51,0c-.83,0-1.52-.06-1.85-.1l.85,0L22.6,38l-.49.54.4-.43-.85,1-8.9-.37.62.06-1.16,0c.14,0,.56-.07.68,0l-5.52-.28L5.58,36c.51-2.14,1-4.27,1.37-5.84.09-1.12.15-2,.19-2.44.08-.92.05-.17.06-.15.07-1.13,0-.49.07-1.45,0-.26,0,.06,0,.21,0-.42.06-.81,0-.84,0,.52-.07.29-.11.51l0-.59,0-.68,0,.05c0-.27-.09-.69-.13-1.9-.08-2.05-.16-4.26-.24-6.31,0,0,0,.46.06.89l0-.95c0,.5-.05-.86,0-.47-.12-1.5-.15-3.45-.24-4.78,0,0-.16-.45-.34-1.12L5.5,9.29A3.57,3.57,0,0,0,5,8.84L4.64,8c0,.1.37.84.56,1.22l.06.06c.22.44.24.5.26.55l.05.13.16.35s0,0,0,0l-.17-.34L5,8.9l.41.89.17.36.08.14s0,0,0,0h0v.19s0,0,0,0,0,0,0,.41c0,.57.09,1.32.1,2h0c0,1.59.13,2.43.16,3.88v-.16c0,.59,0,1.49.09,2.45,0-.26,0-.49,0,.06,0,1.1.06,1.72.09,2.57l.05.75c0,.66.07,1.68.12,3S6.1,28.36,6,30c-.51,2.16-1,4.36-1.45,6.21l2.33,3.13,5.07.25h-.15l10.29.52,1-1,11.48.43.7,0,2.19-1.68c-.42.31-.29.19,0-.06l.91-.71c0-1.37,0,.17,0-2.44,0-1.26,0-3.82,0-6.72-.3-.46-.62-.93-.94-1.4.34-4.37.72-9,.85-10.7s.25-3.61.37-5.24v.24l0-.48L36.06,7.28H28.94l-1.44.89-.74.12.26,0c-1.68.29-1.46.21-2.79.41A17.21,17.21,0,0,1,22.42,9h0l-3.72.62-.06,0h0L15.19,7.35l-1.54-1-2.92.32L7.85,7l-1.64.13L6,7.18S3.42,8.25,6.78,8l0,0L7.39,8c.8-.08,1.16-.15,1.11-.12L7.41,8c.8-.09.25,0-.06,0l.93-.1L8,7.93c.43-.06,1-.15,1.55-.2.81-.1.06,0,1-.08l2.84-.32,5.09,3.28,6.11-.95c.11,0,0,0-.17,0l3.41-.54.92-.58.36-.2.09-.05h6.33Z"/></g><g id="Tracé_580" data-name="Tracé 580"><path d="M3.21,3.38c.48.05,1.32.06,2.11.06C4.71,3.4,4.06,3.38,3.21,3.38Z"/><polygon points="5.34 3.45 5.35 3.44 5.32 3.44 5.34 3.45"/><path d="M1.38,2.58l-.22.62Z"/><path d="M40.64,5.51l.14,0a8.47,8.47,0,0,1,.76.84s0,0,0,0h0s0,0,0,.08c.06.68-.23,2.87-.21,3.47a7.71,7.71,0,0,1-.11.78,11.93,11.93,0,0,1-.08,1.41c0,.2,0-.14.06-.28l-.07,1.22c0,.48-.1.6-.07.07-.14,1.81-.58,7.34-1,12.56l1.47,2c-.13,3.11-.24,5.81-.29,7,.07-.44.08-1.51.17-1.91,0,.92-.07,1.35,0,1.75s-.11,2-.25,2.69l0,.27,0,.45,0,.83v.07l-.21.19-.21.17-1.56,1.25-.71.6-.16.14-.1.08v0s0,0-.26,0h-.62c-.4,0-.76,0-1.15,0,.17,0,.63.07.09.06-.09-.06-1.42,0-1.68-.09-.52,0-2.22-.1-1.65,0-.28-.05-1.79-.13-.89-.12-.51,0-1-.06-1.37-.06l.65,0c-1.72-.07-2.66-.16-3.78-.15l.63.06a18,18,0,0,1-2.29-.16l1.06,0c-1.71-.07-2.74-.11-4.16-.13l.5,0-1.78,0-3.16-.1-1.91,1.44-1.93.22L12.25,42l-1.42-.21.75.19-1.42-.21c.16,0,.71-.06.85,0L4.33,40.58,3.16,38.35V29.94l1-1.81v-1c0-1.15.09-.2.1-.19,0-1.4-.07-.6-.08-1.79,0-.33,0,.07,0,.25a9.64,9.64,0,0,0,0-1.05c0,.66-.08.38-.12.66l0-1.53,0,.07a19.69,19.69,0,0,1-.13-2l0-.4c-.27-2.53-.56-5.26-.82-7.79a9.57,9.57,0,0,1,.17,1.09c0-.33-.09-.85-.11-1.17,0,.62-.14-1.06-.11-.58-.31-1.84-.46-4.25-.71-5.88a11.06,11.06,0,0,1-.62-1.12c-.23-.84-.38-2.55-.46-2.55l.41-1.11c-.07.12-.42,1.06-.59,1.57l0,.11C.68,4.91,1,3.94.53,5.16a16.11,16.11,0,0,1,.63-2L.73,4.37l-.17.47-.14.47-.09.24c0,.55,0,.48,0,.49a1.85,1.85,0,0,0,0,.54C.45,7.28.6,8.19.65,9h0c.16,2,.4,3,.54,4.78l0-.19c0,.64.21,1.88.3,3,0-.33,0-.62.06.07.11,1.32.24,2.21.3,3.17l.15.92.1.9c0,1.27.05,3.47.1,6l-.95,1.8c0,3.27,0,6.67,0,9.38.83,1.57,1.37,2.58,1.84,3.48l6.49,1.15-.18,0,4.94.88,2.75-.27,1.79-1.32,18.86.75,1.11.08,2.72-2.2c-.51.4-.36.23,0-.09L43.16,40a5.21,5.21,0,0,0,0-.68c0-.18,0-.58.06-2,.07-1.83.23-5.83.41-10.14l-1.45-2c.38-4.72.75-9.34.89-11.1.08-2,.32-4.45.42-6.4v.2c0-.43.09-1.2.16-2.2L39.9,1.74H28.68l-.8.56-.43.28-1.06.7s0,0,0,.09a.33.33,0,0,1-.16,0l-.55,0-1,0,0,0-3.48.08L21,3.28l-.43-.46.08,0L19.51,1.65H15.27c-2.37,0-6-.1-9.17,0l-2-.13h-.3S.48,3,4.65,3.33l-.07,0H5.4c1,0,1.45,0,1.38,0H5.43c1,0,.3,0-.08.07l1.15,0c.19,0-.15,0-.3,0,.53,0,1.28,0,1.93,0,1,0,.06.07,1.25.08l9.29.07,1.68,1.87H27l.76-.54c.12-.07,0,0-.17.15l1.72-1.24,2.51,0a5.75,5.75,0,0,1,.76.07c-.1,0,.89,0,2.28,0H39C39.91,4.75,40.6,5.48,40.64,5.51Z"/></g></g></g></svg>