<svg xmlns="http://www.w3.org/2000/svg" viewBox="0 0 41.93 40.52"><defs><style>.cls-1{fill:#fff;}.cls-2{fill:#9a7798;}</style></defs><title>Fichier 4</title><g id="Calque_2" data-name="Calque 2"><g id="Calque_1-2" data-name="Calque 1"><g id="Tracé_580" data-name="Tracé 580"><polygon class="cls-1" points="1.68 1.08 16.87 1.11 18.42 2.84 23.76 2.84 25.88 1.31 35.57 1.31 38.53 4.41 37.18 22.48 38.53 24.36 38.06 35.58 34.64 38.43 16.3 37.62 14.59 38.89 12.46 39.09 2.72 37.31 1.37 34.72 1.37 26.5 2.25 24.82 2.17 18.94 0.61 4.13 1.68 1.08"/><path class="cls-2" d="M1.51,1c.1-.71-.41.09-.84.78l.3.87Z"/><path class="cls-2" d="M.34,4.82l.8,1.9L.7,5.34c.14-1.57.65.13.82.72a4.59,4.59,0,0,0-.31-1.21c-.09-.17-.19-.22-.29-.2S.53,5,.34,4.82Z"/><path class="cls-2" d="M1.21,8.62c.09,1.26.44.87.5.33C1.54,8.89,1.27,8.09,1.21,8.62Z"/><path class="cls-2" d="M39.56,23.05a3.08,3.08,0,0,1,.39.89s0,0-.05,0c.07.38.13.55.21-.09C40,23.7,39.84,23.46,39.56,23.05Z"/><path class="cls-2" d="M39.9,24v0l-.25-.24.22.25h0S39.89,24,39.9,24Z"/><path class="cls-2" d="M25.08,34.67a26.55,26.55,0,0,1-3.55.07l-.73-.51c-1.46.09-.66.37-1.72.58a7.3,7.3,0,0,0-1.22-.19l-1.18-.06-1.34-.05L13.48,36c.1,0,0,0,0,0v0a.33.33,0,0,1-.06-.14l0-.15s-.1,0-.14-.06c.15-.06.09,0,.11.08a.68.68,0,0,1,0,.27,2.86,2.86,0,0,1-.46.17l-.14,0c-.05,0,0,0-.05,0l-.08,0c-.08,0,0,0-.37,0v-.14c-1.39-.06-2.86-.21-4.38-.39L5.5,35.36l-.58-.08-.23,0-.43,0L4,34.79l-.23-.38-.14-.24c0-.08-.07-1.21-.11-2s-.09-1.68-.15-2.5c0,.38-.13.29-.22.44l-.05-1.79,0-.91,0-.5.23-.48.61-1.22L3.8,23.3l-.09-1.48c-.07-1-.14-1.9-.23-3a39.46,39.46,0,0,0-1.52-6c.24,1.63.3,3.84.47,6.07,0,1.09,0,2.13.06,3.12a19.08,19.08,0,0,0,.41,2.87V25a6.22,6.22,0,0,0-.6.91c-.15.26-.26.5-.38.75a5.93,5.93,0,0,1,0,.85,1,1,0,0,1-.21.64,29.83,29.83,0,0,0,.05,3.61c0,.53.09,1,.15,1.52s.11.93.17,1.31l.32.45.35.51c.21.31.41.62.61.95.36,0,.72.09,1.11.16.2.08.32.19.32.29s0,.2,0,.33L2.92,37l-.73-1.18.58,1.39.59.17a6.24,6.24,0,0,1-.69,0l-.91-1.53c-.29-.46-.59-.87-.82-.93.29.42.56.81.82,1.23s.55.9.81,1.36l4.33.68a21.56,21.56,0,0,0,3.67.31c-1.23-.34-2.82-.5-4.29-.81-.63-.26-1.62-.56-1.51-.77a34.53,34.53,0,0,1,4.05.34l1.93.29,1.76.31,1.61-.17,1.77-1.4H16c1.72,0,3,.12,3.22.36-.74,0-.19.25-.8.34,1.58-.13.2-.82,2.46-.63l-.33.78c.94-.79,2.77.27,4.41-.15.56.35-.51.48-1.76.45,1.41.2,1.55-.26,2.68-.19l-1.1.62c1.23-.59,2.14.22,2.81.47.09-.16-.52-.7,1-.6.64.12.3.27.45.38.09-.17.65-.45,1.64-.42.17.23-.68.31-.75.54a5.66,5.66,0,0,1,1.89.21c1.33-.13-.07-.33.75-.54,1,.13,1,.32.94.56s-.44.49,0,.75c-1.65.25-3.55.26-4.4.41l3-.06c-.19.26,2,.54.4.73.49.08,1.77.16,2.88.22l1.34-1.12,1-.84,2.28-2.05c0-.73,0-1.45,0-2.16l0-1.42c-.11.39-.19.9-.35.81-.1-1.45.23-1.28.43-1.57-.14-1.08-.6-1-.91-1.65.48-2.2.25-2.52.89-4.39l-.46.1a2.24,2.24,0,0,0,.12-.57,3,3,0,0,0,0-.59c0-.36-.09-.65-.13-1a5.56,5.56,0,0,1-.41-.49,6,6,0,0,1-.43-.72s.09,0,.32.17l.68.68a4.68,4.68,0,0,1-.32-.41,3.69,3.69,0,0,1-.26-.38,1.16,1.16,0,0,1-.14-.27.22.22,0,0,1,0-.14.57.57,0,0,0-.15-.47.72.72,0,0,0,0-.19,1.14,1.14,0,0,0,.17.15,3.94,3.94,0,0,0,.51.14l-.19-.23a1.56,1.56,0,0,1,0-.5.56.56,0,0,1,.1-.15s.11,0,.19.1c-.39-1.75,0-4.78-.1-7l.39.17c-.4-1.15.33-4.1-.18-5.11l.18-.15-.37-2.26c.12-1,.69-.62.53-.71,0-.9.08-1.73.12-2.5l-1-1L38.31,2l-.56-.66c-.26-.3-.5-.6-.73-.9a1.71,1.71,0,0,1-.88-.4c-.34.06-.72.11-1.12.16l-1.2.1c-.67.06-1.4.09-2.07.12L28.83.3l-3.28,0L23.43,1.81l-2.35.05-1.26,0-1,.05-.2-.19-.05,0-.22-.25-.21-.2-.2-.21L17.89,1l.07.08L17.81.93,17.22.31,15.53.37,14.12.44l-2.7.15L6.19.94a39.25,39.25,0,0,0-4.51.85c1.9.14,2.08-.13,4-.12,1.4.14,1.92.69,3.13,1l-.61-.45C10,1.89,9.45,2.49,11,2l-.06.72c.53-.37,1.85-.06,2.4.13l.49-.5c.6.13,1.09.23,1.48.35a.62.62,0,0,1,.36.49c0-.15,0-.3,0-.46.05.08.21.11.41.13l-.06,0,.61.7.1.13s.17.2-.11-.11l-.06-.06,0,0,.05.06.1.12.19.23c.25.3.47.57.63.8.48.08.6.21-.19.45h0A8.39,8.39,0,0,1,19.73,5l.17.45a5.93,5.93,0,0,1,2.68,0,1.58,1.58,0,0,0-1,.51,17.76,17.76,0,0,0,3.11-.2,2,2,0,0,0,.67-1.44,2,2,0,0,1,.42-.74l.16-.2.1-.14a2.29,2.29,0,0,1,.35-.33h.16l.05.3L26.84,3a1,1,0,0,1,.34-.15l1.09.37a5.89,5.89,0,0,1,3.2-.43l2.09.11.78,0a4.89,4.89,0,0,0,.54,0,1.54,1.54,0,0,0,.42.26,1.64,1.64,0,0,1,.27.33c.14.19.28.41.43.65a3.77,3.77,0,0,1,.3.54,2,2,0,0,0,.22.41,1.87,1.87,0,0,0,0,.34L37,5.33c-.25.16-.58,2.11-1,3.79a11.44,11.44,0,0,1-1.44,4.09c.25,1.43.11-.14.47-.08.27,2.77-.46,2.9-.84,4.31.1,1.7.27-1.27.55-.34a5.31,5.31,0,0,0-.07,2.4,5.94,5.94,0,0,1,.1,1.05,23.06,23.06,0,0,1-.22,2.68l.09.14c0,.18-.09.11-.27-.09,0-.46,0-1.46,0-1.86,0,.57,0,1.19,0,1.86l.59.75.7.92c.18.23.11.12.1.1l.11.12v.2l0,.45c0,.54,0,1.08-.08,1.63,0,1.09-.1,2.19-.12,3.2-.08.7-.16,1.46-.25,2.27l-.06.61,0,.31c0,.08,0,.06,0,.09l-.07.22-.19.08s0,0-.12.06l-.45.34L34,35l-.22.17s0,0,0,0l-.13,0-.13-.07a2.41,2.41,0,0,0-.42-.06L32.41,35l-2.26-.28-.09.16c-1.84-.5-3.86-.19-6-.48Z"/><path class="cls-2" d="M.39,33.81a5.05,5.05,0,0,0-.39.48L.07,35l1.06,1.61c0-.19-.1-.38-.13-.5a2.53,2.53,0,0,0-.15-.36C.72,35.52.57,35.27.39,35A8.75,8.75,0,0,1,.39,33.81Z"/><polygon class="cls-2" points="1.57 34.23 1.39 33.18 1.42 34.71 1.51 34.88 1.47 34.7 1.57 34.23"/><polygon class="cls-2" points="24.66 38.4 24.39 38.32 20.48 38.48 24.66 38.4"/><path class="cls-2" d="M40.06,23.07a4.9,4.9,0,0,1,.63.65,13.74,13.74,0,0,0,.06,1.6l0-1.61-.86-1.06Z"/><path class="cls-2" d="M41.93,7a1.11,1.11,0,0,1-.27-.51,1.68,1.68,0,0,1,0-.2l0-.26c0-.13,0-.17,0-.07l-.1.26a1.57,1.57,0,0,1-.21.28C41.37,7.55,41.72,6.63,41.93,7Z"/><path class="cls-2" d="M39.14,1.34l.15.17.25.25c.15.15.3.28.44.4s.53.43.79.62a3.09,3.09,0,0,0-.91-1.06A6.55,6.55,0,0,0,39.14,1.34Z"/></g></g></g></svg>