<svg xmlns="http://www.w3.org/2000/svg" xmlns:xlink="http://www.w3.org/1999/xlink" viewBox="0 0 40.59 41.54"><defs><style>.cls-1,.cls-2,.cls-3,.cls-4,.cls-5{stroke:#000;}.cls-1,.cls-2{stroke-width:2.5px;}.cls-1{fill:url(#Dégradé_sans_nom_2);}.cls-2{fill:url(#Dégradé_sans_nom_2-2);}.cls-3,.cls-4{fill:none;}.cls-3{stroke-width:1.5px;}</style><linearGradient id="Dégradé_sans_nom_2" x1="-576.67" y1="517.69" x2="-576.67" y2="516.69" gradientTransform="matrix(14.8, 0, 0, -30.05, 8543.7, 15563.04)" gradientUnits="userSpaceOnUse"><stop offset="0" stop-color="#00e69a"/><stop offset="1" stop-color="#00734d"/></linearGradient><linearGradient id="Dégradé_sans_nom_2-2" x1="-596.93" y1="521.38" x2="-596.93" y2="520.38" gradientTransform="matrix(28.69, 0, 0, -38.85, 17152.59, 20255.13)" xlink:href="#Dégradé_sans_nom_2"/></defs><title>Fichier 2</title><g id="Calque_2" data-name="Calque 2"><g id="Calque_1-2" data-name="Calque 1"><path id="Tracé_91" data-name="Tracé 91" class="cls-1" d="M11.12,9.55,8,8.63S4.07,14.29,3.72,14.4,1.52,32,1.52,32l7.4,6.7,7.4-3.81-1.73-4.4L10.43,32,8,28.38V17.28l4-3.58Z"/><path id="Tracé_88" data-name="Tracé 88" class="cls-2" d="M35.53,37.44,23.09,40.23l-6.85-2.79-5.59-9.9V10.27l3-4.82,9.39-4.06,7.62,4.06,4.82,11.68,3.81,4.06v9.9Z"/><path id="Tracé_89" data-name="Tracé 89" class="cls-3" d="M20.46,2.66,16.7,10.11l.41,5.68,2.94,8.41.41,3.7,2.12,2.18,9-1.43,7.59-7.46"/><path id="Tracé_92" data-name="Tracé 92" class="cls-4" d="M19.91,24.4S36.32,18.93,35.43,17"/><path id="Tracé_93" data-name="Tracé 93" class="cls-5" d="M17.17,11.34l3.56.48L22,13.12l-1.23,2.05-3.56-1.36Z"/><path id="Tracé_94" data-name="Tracé 94" class="cls-4" d="M10.65,8.62,7.81,7.91,2.88,14.34.53,32.14l8.22,7.4,6.19-3.07"/><path id="Tracé_90" data-name="Tracé 90" class="cls-4" d="M38.66,22.7l-.58,8.09L34.5,36.45,23.06,39,16.7,37.26"/></g></g></svg>