<svg xmlns="http://www.w3.org/2000/svg" viewBox="0 0 48.9 49.89"><defs><style>.cls-1,.cls-2{fill:#04aecf;}.cls-1,.cls-2,.cls-3,.cls-4,.cls-5{stroke:#000;}.cls-2,.cls-5{stroke-width:2px;}.cls-3,.cls-5{fill:none;}</style></defs><title>Fichier 1</title><g id="Calque_2" data-name="Calque 2"><g id="Calque_1-2" data-name="Calque 1"><path id="Tracé_84" data-name="Tracé 84" class="cls-1" d="M13.22,11.14,9.39,10s-4.83,7-5.26,7.1-2.7,21.58-2.7,21.58l9.09,8.24,9.09-4.69-2.13-5.4-5.11,1.85-3-4.4V20.66l5-4.4Z"/><path id="Tracé_79" data-name="Tracé 79" class="cls-2" d="M43.22,45.41,27.93,48.84l-8.42-3.43L12.65,33.24V12L16.39,6.1l11.54-5,9.36,5,5.93,14.35,4.68,5V37.61Z"/><path id="Tracé_80" data-name="Tracé 80" class="cls-3" d="M24.7,2.68l-4.62,9.15.5,7,3.61,10.33.5,4.54,2.6,2.69,11-1.77,9.32-9.15"/><path id="Tracé_81" data-name="Tracé 81" class="cls-3" d="M24,29.4s20.17-6.73,19.08-9.16"/><path id="Tracé_82" data-name="Tracé 82" class="cls-4" d="M20.66,13.35l4.37.59,1.51,1.6L25,18.06l-4.37-1.68Z"/><path id="Tracé_85" data-name="Tracé 85" class="cls-3" d="M12.8,10.59,9.16,9.12,3.46,17,.53,38.87l10,9.15L18,43.58"/><path id="Tracé_83" data-name="Tracé 83" class="cls-5" d="M47.36,26.45l-.61,11.08-4.24,7L27.89,47.32l-8.43-2.54"/><path id="Tracé_86" data-name="Tracé 86" class="cls-3" d="M11.82,19.52l-2,2,.53,13L12.8,38l1.6-.36"/></g></g></svg>