<svg xmlns="http://www.w3.org/2000/svg" xmlns:xlink="http://www.w3.org/1999/xlink" viewBox="0 0 64.85 63.35"><defs><style>.cls-1,.cls-2,.cls-3{stroke:#000;}.cls-1,.cls-3{stroke-width:2.5px;}.cls-1{fill:url(#Dégradé_sans_nom);}.cls-2,.cls-3{fill:none;}.cls-2{stroke-width:2px;}.cls-3{stroke-dasharray:3 1.5;}</style><linearGradient id="Dégradé_sans_nom" x1="-596.61" y1="537.11" x2="-596.61" y2="536.11" gradientTransform="matrix(61.34, 0, 0, -60.72, 36629.91, 32616.1)" gradientUnits="userSpaceOnUse"><stop offset="0" stop-color="#f6ec7e"/><stop offset="1" stop-color="#fbcf75"/></linearGradient></defs><title>Map</title><g id="Calque_2" data-name="Calque 2"><g id="Calque_1-2" data-name="Calque 1"><g id="Map"><path id="Tracé_118" data-name="Tracé 118" class="cls-1" d="M2.11,47.27,4.34,26.82V19L3.8,14.46,1.67,7.17H9.05L3.8,3.79l13.07-2,8.45,9.16L24,1.31l23.39.88,3.28.63,4.54,3.29,1.78,6-7.56,5.69H58v8.54l-4.44,4.53,4.8,2.76.44,11.65,1.69,10.22L63,62,30.29,60.78V54.92l-5.95,4.79-2.85-4.26L19.18,62H15.09Z"/><path id="Tracé_119" data-name="Tracé 119" class="cls-2" d="M25.32,24.06l4.35-10.4,3.56,7"/><path id="Tracé_120" data-name="Tracé 120" class="cls-2" d="M31.83,17.4l4.78-8.9,4,10.3"/><path id="Tracé_121" data-name="Tracé 121" class="cls-2" d="M37.14,24.06l7.11-9.77,4.89,9.33"/><path id="Tracé_122" data-name="Tracé 122" class="cls-3" d="M9.76,15.8s10.53-.23,7.24,12c.18-.18-8.54,9.55,8,11.69-.09,0,4.91-.45,10.45-8.21-.18.08,12.55-1.92,12.81,12.3"/><path id="Tracé_123" data-name="Tracé 123" d="M52.25,45.49c.09,0,4.27,1.95,4.27,1.95S47.28,59,40.16,56.69C40,56.6,46.83,56.43,52.25,45.49Z"/><path id="Tracé_124" data-name="Tracé 124" d="M40.34,49.4c0,.05,0-4.45,0-4.45s13.43,4.89,17.25,14.23A28.18,28.18,0,0,0,40.34,49.4Z"/></g></g></g></svg>