<svg xmlns="http://www.w3.org/2000/svg" xmlns:xlink="http://www.w3.org/1999/xlink" viewBox="0 0 27.72 45.1"><defs><style>.cls-1,.cls-2,.cls-3{stroke:#000;}.cls-1{stroke-width:2px;fill:url(#Dégradé_sans_nom);}.cls-2{fill:none;}</style><linearGradient id="Dégradé_sans_nom" x1="-600.1" y1="524.6" x2="-600.1" y2="523.6" gradientTransform="matrix(25.62, 0, 0, -42.82, 15385.52, 22463.18)" gradientUnits="userSpaceOnUse"><stop offset="0" stop-color="#fbcf75"/><stop offset="1" stop-color="#f89ac4"/></linearGradient></defs><title>Profil</title><g id="Calque_2" data-name="Calque 2"><g id="Calque_1-2" data-name="Calque 1"><path id="Tracé_107" data-name="Tracé 107" class="cls-1" d="M7.59,21.25l-1.68.9-1.42-.63L2.28,18.89,1.07,15.41l.74-1.73,1-1v-2s.68-3.26.68-3.42,1-2.1,1-2.1L6.81,3.42,8.7,2.16l2.68-1.1h2.74a14.44,14.44,0,0,1,2.63,0c.21.16,1.52.53,1.68.68s2.84,1.69,2.84,1.69l1.16,1.1,1.1,1,1.16,2.05.84,1.53.58,2.57v1.48l.31,1.37v1.1l-.31,1.05.58,1.52-.27,1.48-.89,2.42L25,23.67,24.69,25l-1.16,1.63-1.1.94-1.16,1.32-.73.74-1.1.31-1.74-.31.74,1.63,2.1,1,3,.42L25,33.83l1.42,1-.32.84-2.26,2.1-2.58,2.15-2.84,2.74-1.21,1.16L13.8,41.45l-2.42-3L7.91,36.24l-2-1.89L9.07,32a20.74,20.74,0,0,1,2.58-.78c.21.05.68-.79.68-.79V27.88L10,27c-.15-.05-2.05-2-2.05-2L6.6,23Z"/><path id="Tracé_110" data-name="Tracé 110" class="cls-2" d="M3.16,12.91l1.78-1,2.22,1L8,15.66l-.8,2.58s-.71,1.15-1.07.71L4.58,17.79l.36-1.51"/><path id="Tracé_109" data-name="Tracé 109" class="cls-3" d="M11.36,17.66c0-.08,2-4.74,6.35.48C17.71,18.14,13.91,23.32,11.36,17.66Z"/><path id="Tracé_108" data-name="Tracé 108" class="cls-3" d="M21.83,18.22c-.08,0,2.07-5.18,4.25-1.29C26.13,16.85,25.12,22.64,21.83,18.22Z"/></g></g></svg>