<svg xmlns="http://www.w3.org/2000/svg" width="48.902" height="49.888" viewBox="0 0 48.902 49.888">
  <g id="Groupe_5" data-name="Groupe 5" transform="translate(-105.621 -5009.26)">
    <path id="Tracé_84" data-name="Tracé 84" d="M-162.385,4973.747l-3.834-1.136s-4.828,6.958-5.254,7.1-2.7,21.585-2.7,21.585l9.089,8.236,9.089-4.686-2.13-5.4-5.112,1.846-2.982-4.4v-13.633l4.97-4.4Z" transform="translate(281.227 46.656)" fill="#04aecf" stroke="#000" stroke-width="1"/>
    <path id="Tracé_79" data-name="Tracé 79" d="M-134.472,5009.671l-15.288,3.432-8.424-3.432-6.864-12.168v-21.215l3.744-5.928,11.544-4.992,9.36,4.992,5.928,14.352,4.68,4.992v12.167Z" transform="translate(283.314 45)" fill="#04aecf" stroke="#000" stroke-width="2"/>
    <path id="Tracé_80" data-name="Tracé 80" d="M-154.379,4966.643-159,4975.8l.5,6.975,3.613,10.335.5,4.538,2.6,2.689,11.008-1.765,9.327-9.159" transform="translate(284.697 45.291)" fill="none" stroke="#000" stroke-width="1"/>
    <path id="Tracé_81" data-name="Tracé 81" d="M-155.787,4990.095s20.167-6.722,19.074-9.159" transform="translate(285.432 48.56)" fill="none" stroke="#000" stroke-width="1"/>
    <path id="Tracé_82" data-name="Tracé 82" d="M-158.522,4975.328l4.369.588,1.512,1.6-1.512,2.521-4.369-1.681Z" transform="translate(284.806 47.278)" stroke="#000" stroke-width="1"/>
    <path id="Tracé_85" data-name="Tracé 85" d="M-95.58,4984.362l-3.635-1.47-5.7,7.871-2.934,21.87,9.957,9.157,7.557-4.445" transform="translate(214 35.491)" fill="none" stroke="#000" stroke-width="1"/>
    <path id="Tracé_83" data-name="Tracé 83" d="M-64.715,4996.837l-.615,11.079-4.24,6.976-14.617,2.813-8.43-2.539" transform="translate(217.698 38.874)" fill="none" stroke="#000" stroke-width="2"/>
    <path id="Tracé_86" data-name="Tracé 86" d="M117.442,5028.782l-1.956,2.009.533,12.98,2.4,3.467,1.6-.356" fill="none" stroke="#000" stroke-width="1"/>
  </g>
</svg>
